<svg xmlns="http://www.w3.org/2000/svg" viewBox="0 0 581.88263 830.95042" width="210mm" height="297mm"><g><g><g><g><path d="m252.51083,360.36437v50.98779h-10.05664v-22.0127h-22.85645v22.0127h-10.05713v-50.98779h10.05713v20.81738h22.85645v-20.81738h10.05664Z" style="fill: none; stroke: #1d1d1b;"/><path d="m268.61386,395.10656c.5625,6.47021,4.92285,9.63477,9.56445,9.63477,3.02441,0,5.97803-1.05469,7.94727-4.36035h9.98633c-2.03906,5.62646-7.5249,11.88525-17.86328,11.88525-12.1665,0-19.26953-9.07227-19.26953-19.97266,0-11.25244,7.80615-19.62158,18.98828-19.62158,11.67432,0,18.91895,9.07227,18.56738,22.43457h-27.9209Zm.14062-6.68115h17.93359c-.21094-6.3999-4.71191-8.65039-8.79102-8.65039-3.65674,0-8.36865,2.25049-9.14258,8.65039Z" style="fill: none; stroke: #1d1d1b;"/><path d="m312.49667,411.35217h-9.70508v-50.98779h9.70508v50.98779Z" style="fill: none; stroke: #1d1d1b;"/><path d="m330.92148,411.35217h-9.70508v-50.98779h9.70508v50.98779Z" style="fill: none; stroke: #1d1d1b;"/><path d="m337.10995,392.50451c0-13.29199,9.42383-19.83252,18.98828-19.83252s18.98828,6.54053,18.98828,19.83252c0,13.22168-9.42383,19.76172-18.98828,19.76172s-18.98828-6.54004-18.98828-19.76172Zm9.8457,0c0,7.94678,3.79785,12.1665,9.14258,12.1665s9.14258-4.21973,9.14258-12.1665c0-7.94727-3.79785-12.2373-9.14258-12.2373s-9.14258,4.29004-9.14258,12.2373Z" style="fill: none; stroke: #1d1d1b;"/></g><g><circle cx="223.94131" cy="279.84826" r="42" style="fill: none; stroke: #1d1d1b; stroke-miterlimit: 10;"/><circle cx="357.94131" cy="279.84826" r="42" style="fill: none; stroke: #1d1d1b; stroke-miterlimit: 10;"/></g></g><rect x=".5" y=".5" width="580.88263" height="829.95042" style="fill: none; stroke: #1d1d1b;"/></g></g><g xmlns:sodipodi="http://sodipodi.sourceforge.net/DTD/sodipodi-0.dtd" xmlns:cc="http://creativecommons.org/ns#" xmlns:ccOLD="http://web.resource.org/cc/" xmlns:dc="http://purl.org/dc/elements/1.1/" xmlns:rdf="http://www.w3.org/1999/02/22-rdf-syntax-ns#" xmlns:inkscape="http://www.inkscape.org/namespaces/inkscape" xmlns:xlink="http://www.w3.org/1999/xlink" transform="matrix(71.064450,0.000000,0.000000,71.064450,-2.829036,0.000000)" inkscape:groupmode="layer" inkscape:label="% Preview"><g inkscape:groupmode="layer" inkscape:label="Pen-up movement"><path xmlns:svg="http://www.w3.org/2000/svg" style="stroke-width:0.008268;fill:none;stroke-linejoin:round;stroke-linecap:round;stroke:LightPink" d="M8.268 0.000  8.250 0.019  8.215 0.057  8.162 0.115  8.091 0.191  8.003 0.287  5.993 2.468  3.983 4.648  3.858 4.783  3.770 4.879  3.699 4.956  3.646 5.014  3.611 5.052  3.593 5.071 M3.593 5.071  3.607 5.101  3.636 5.163  3.678 5.254  3.735 5.376  3.777 5.468  3.805 5.529  3.820 5.560 M3.820 5.560  3.820 5.536  3.821 5.516  3.821 5.500  3.821 5.486  3.821 5.476  3.822 5.469  3.822 5.466 M3.822 5.466  3.860 5.486  3.937 5.526  4.052 5.587  4.206 5.667  4.322 5.728  4.399 5.768  4.437 5.788 M4.437 5.788  4.466 5.788  4.524 5.788  4.610 5.788  4.667 5.788  4.696 5.788 M4.696 5.788  4.706 5.759  4.725 5.700  4.754 5.612  4.774 5.553  4.783 5.523 M4.783 5.523  4.814 5.523  4.841 5.523  4.864 5.523  4.884 5.523  4.899 5.523  4.911 5.523  4.918 5.523  4.922 5.523 M4.922 5.523  4.900 5.509  4.857 5.479  4.793 5.435  4.707 5.376  4.599 5.303  2.923 4.158  2.815 4.085  2.729 4.026  2.665 3.982  2.622 3.953  2.600 3.938 M2.600 3.938  2.626 3.938  2.678 3.938  2.756 3.938  2.860 3.938  2.991 3.938  4.095 3.938  4.225 3.938  4.329 3.938  4.407 3.938  4.460 3.938  4.486 3.938 M4.486 3.938  4.466 3.921  4.427 3.886  4.369 3.834  4.291 3.765  4.193 3.679  1.973 1.713  0.339 0.266  0.242 0.180  0.164 0.110  0.105 0.059  0.066 0.024  0.047 0.007 M0.047 0.007  0.073 0.007  0.125 0.007  0.203 0.007  0.307 0.007  0.438 0.006  3.403 0.004  6.368 0.002  7.877 0.000  8.007 0.000  8.111 0.000  8.189 0.000  8.242 0.000  8.268 0.000" desc="pen-up transit"/></g><g inkscape:groupmode="layer" inkscape:label="Pen-down movement"><path xmlns:svg="http://www.w3.org/2000/svg" style="stroke-width:0.008268;fill:none;stroke-linejoin:round;stroke-linecap:round;stroke:Blue" d="M3.593 5.071  3.593 5.093  3.593 5.136  3.593 5.726  3.593 5.764  3.593 5.788  3.565 5.788  3.540 5.789  3.517 5.788  3.497 5.788  3.480 5.789  3.464 5.789  3.452 5.789  3.452 5.765  3.452 5.726  3.452 5.541  3.452 5.503  3.452 5.479  3.427 5.479  3.389 5.479  3.193 5.479  3.154 5.479  3.130 5.479  3.130 5.503  3.130 5.541  3.130 5.726  3.130 5.764  3.130 5.788  3.102 5.788  3.077 5.789  3.054 5.788  3.034 5.788  3.016 5.789  3.001 5.789  2.988 5.789  2.988 5.765  2.988 5.726  2.988 5.134  2.988 5.095  2.988 5.071  3.016 5.071  3.041 5.071  3.064 5.071  3.084 5.071  3.102 5.071  3.117 5.071  3.130 5.071  3.130 5.095  3.130 5.133  3.130 5.301  3.130 5.340  3.130 5.364  3.154 5.364  3.193 5.364  3.389 5.364  3.427 5.364  3.452 5.364  3.452 5.340  3.452 5.301  3.452 5.134  3.452 5.095  3.452 5.071  3.488 5.071  3.547 5.071  3.579 5.071  3.594 5.071  3.593 5.071 M3.820 5.560  3.825 5.592  3.835 5.619  3.848 5.643  3.865 5.662  3.885 5.676  3.907 5.687  3.930 5.693  3.954 5.695  3.986 5.692  4.016 5.682  4.043 5.663  4.066 5.634  4.096 5.634  4.123 5.634  4.146 5.634  4.166 5.634  4.183 5.634  4.196 5.634  4.206 5.634  4.193 5.664  4.176 5.693  4.153 5.722  4.125 5.747  4.091 5.769  4.052 5.786  4.007 5.797  3.955 5.801  3.924 5.800  3.894 5.796  3.867 5.788  3.841 5.779  3.794 5.753  3.756 5.718  3.725 5.677  3.702 5.629  3.689 5.577  3.684 5.520  3.689 5.463  3.704 5.410  3.727 5.363  3.759 5.323  3.797 5.290  3.843 5.265  3.895 5.250  3.951 5.244  3.981 5.246  4.010 5.250  4.037 5.257  4.062 5.267  4.086 5.280  4.108 5.295  4.145 5.331  4.175 5.377  4.197 5.431  4.209 5.492  4.211 5.534  4.213 5.560  4.188 5.560  4.150 5.560  3.885 5.560  3.841 5.560  3.820 5.560 M3.822 5.466  3.843 5.466  3.887 5.466  4.011 5.466  4.050 5.466  4.074 5.466  4.070 5.435  4.062 5.409  4.049 5.388  4.032 5.371  4.014 5.359  3.994 5.350  3.972 5.345  3.950 5.344  3.930 5.346  3.910 5.350  3.890 5.359  3.871 5.371  3.854 5.388  3.839 5.409  3.828 5.435  3.822 5.466 M4.437 5.788  4.414 5.788  4.393 5.788  4.374 5.788  4.356 5.788  4.340 5.788  4.325 5.788  4.312 5.788  4.301 5.788  4.301 5.764  4.301 5.726  4.301 5.133  4.301 5.095  4.301 5.071  4.327 5.071  4.352 5.071  4.374 5.071  4.393 5.071  4.410 5.071  4.425 5.071  4.437 5.071  4.437 5.095  4.437 5.134  4.437 5.723  4.437 5.767  4.437 5.788 M4.696 5.788  4.674 5.788  4.653 5.788  4.633 5.788  4.615 5.788  4.599 5.788  4.585 5.788  4.571 5.788  4.560 5.788  4.560 5.764  4.560 5.726  4.560 5.133  4.560 5.095  4.560 5.071  4.587 5.071  4.611 5.071  4.633 5.071  4.653 5.071  4.669 5.071  4.684 5.071  4.696 5.071  4.696 5.095  4.696 5.133  4.696 5.723  4.696 5.767  4.696 5.788 M4.783 5.523  4.785 5.489  4.790 5.457  4.797 5.428  4.806 5.401  4.818 5.375  4.833 5.353  4.867 5.313  4.907 5.283  4.952 5.261  5.000 5.249  5.051 5.244  5.101 5.249  5.149 5.262  5.194 5.283  5.235 5.313  5.269 5.353  5.283 5.375  5.295 5.401  5.305 5.428  5.312 5.458  5.316 5.489  5.318 5.523  5.316 5.557  5.312 5.589  5.305 5.618  5.295 5.645  5.269 5.693  5.235 5.732  5.194 5.762  5.149 5.784  5.101 5.797  5.051 5.801  5.001 5.797  4.952 5.784  4.907 5.762  4.867 5.732  4.833 5.693  4.806 5.645  4.797 5.618  4.789 5.589  4.785 5.557  4.783 5.523 M4.922 5.523  4.924 5.563  4.932 5.597  4.943 5.626  4.958 5.651  4.977 5.670  4.999 5.683  5.024 5.691  5.051 5.694  5.078 5.692  5.103 5.683  5.125 5.670  5.143 5.651  5.158 5.626  5.170 5.597  5.177 5.563  5.179 5.523  5.177 5.484  5.170 5.449  5.158 5.420  5.143 5.395  5.125 5.376  5.102 5.362  5.078 5.354  5.051 5.351  5.024 5.354  4.999 5.362  4.977 5.376  4.958 5.395  4.943 5.420  4.932 5.449  4.925 5.484  4.923 5.510  4.922 5.523 M2.600 3.938  2.602 3.972  2.605 4.016  2.621 4.092  2.645 4.165  2.679 4.234  2.722 4.297  2.772 4.355  2.830 4.406  2.896 4.450  2.966 4.484  3.039 4.509  3.115 4.524  3.191 4.529  3.267 4.524  3.343 4.509  3.416 4.484  3.487 4.450  3.552 4.406  3.610 4.355  3.660 4.297  3.703 4.234  3.737 4.165  3.762 4.092  3.777 4.016  3.782 3.938  3.777 3.859  3.762 3.784  3.737 3.711  3.703 3.642  3.660 3.579  3.610 3.521  3.552 3.470  3.487 3.426  3.416 3.391  3.343 3.367  3.267 3.352  3.191 3.347  3.115 3.352  3.039 3.367  2.966 3.391  2.896 3.426  2.830 3.470  2.772 3.521  2.722 3.579  2.679 3.642  2.645 3.711  2.620 3.784  2.605 3.860  2.603 3.899  2.601 3.925  2.600 3.938 M4.486 3.938  4.488 3.973  4.491 4.016  4.506 4.092  4.531 4.165  4.565 4.234  4.607 4.297  4.658 4.355  4.716 4.406  4.781 4.450  4.852 4.484  4.925 4.509  5.000 4.524  5.077 4.529  5.153 4.524  5.228 4.509  5.302 4.484  5.372 4.450  5.437 4.406  5.496 4.355  5.546 4.297  5.588 4.234  5.623 4.165  5.647 4.092  5.662 4.016  5.668 3.938  5.662 3.860  5.647 3.784  5.623 3.711  5.588 3.642  5.546 3.579  5.495 3.521  5.437 3.470  5.372 3.426  5.302 3.391  5.228 3.367  5.153 3.352  5.077 3.347  5.000 3.352  4.925 3.367  4.852 3.391  4.781 3.426  4.716 3.470  4.658 3.521  4.607 3.579  4.565 3.642  4.531 3.711  4.506 3.784  4.491 3.859  4.488 3.899  4.486 3.925  4.486 3.938 M0.047 0.007  0.068 0.007  0.112 0.007  1.100 0.007  2.089 0.007  3.077 0.007  4.065 0.007  5.054 0.007  6.042 0.007  7.031 0.007  8.019 0.007  8.158 0.007  8.197 0.007  8.221 0.007  8.221 0.031  8.221 0.069  8.221 1.058  8.221 2.046  8.221 3.035  8.221 4.023  8.221 5.012  8.221 6.000  8.221 6.988  8.221 7.977  8.221 8.965  8.221 9.954  8.221 10.942  8.221 11.624  8.221 11.662  8.221 11.686  8.197 11.686  8.158 11.686  7.170 11.686  6.182 11.686  5.193 11.686  4.205 11.686  3.216 11.686  2.228 11.686  1.240 11.686  0.251 11.686  0.109 11.686  0.071 11.686  0.047 11.686  0.047 11.662  0.047 11.624  0.047 10.635  0.047 9.647  0.047 8.658  0.047 7.670  0.047 6.681  0.047 5.693  0.047 4.705  0.047 3.716  0.047 2.728  0.047 1.739  0.047 0.751  0.047 0.072  0.047 0.029  0.047 0.007" desc="pen-down drawing"/></g></g><plotdata application="axidraw" model="1" layer="-2" node="0" last_path="0" node_after_path="0" last_known_x="0" last_known_y="0" paused_x="0" paused_y="0" randseed="0" row="0" id="1671567242"/></svg>